<svg width="47" height="58" viewBox="0 0 47 58" fill="none" xmlns="http://www.w3.org/2000/svg">
<path d="M12.6661 14.3199C15.2214 14.5751 17.2027 15.4484 18.6099 16.9395C20.0409 18.4331 20.6461 20.3989 20.4254 22.837C20.2219 25.0838 19.3225 26.7666 17.7272 27.8855C16.1579 28.983 14.1662 29.4231 11.752 29.2061L11.3294 31.8772L5.95618 31.3405L6.38089 24.6539L8.53019 24.8686C10.369 25.0522 11.7866 24.9647 12.783 24.606C13.8033 24.2497 14.3675 23.4739 14.4757 22.2788C14.5514 21.4423 14.3841 20.7623 13.9736 20.2389C13.5632 19.7155 12.952 19.4133 12.14 19.3322C11.2803 19.2463 10.5889 19.4305 10.0658 19.8847C9.54491 20.3151 9.24658 20.9485 9.17084 21.7851L3.40354 21.209C3.48779 19.7462 3.90534 18.4614 4.65617 17.3546C5.43089 16.2502 6.49334 15.4278 7.84352 14.8873C9.21975 14.3253 10.8273 14.1362 12.6661 14.3199ZM7.87042 40.9379C6.79576 40.8305 5.9403 40.4315 5.30401 39.7409C4.69377 39.0287 4.43086 38.2066 4.51526 37.2744C4.60183 36.3183 5.00866 35.551 5.73577 34.9724C6.48676 34.3962 7.39958 34.1618 8.47423 34.2692C9.525 34.3741 10.3555 34.7827 10.9657 35.4948C11.5999 36.2094 11.8736 37.0447 11.7871 38.0008C11.7027 38.933 11.285 39.6871 10.534 40.2633C9.80904 40.818 8.92119 41.0428 7.87042 40.9379Z" fill="#C40C0C"/>
<path d="M32.8136 26.2481C35.2849 26.9461 37.093 28.1548 38.2378 29.8743C39.4058 31.6004 39.6862 33.6491 39.079 36.0206C38.5195 38.2062 37.366 39.7128 35.6186 40.5406C33.9002 41.3517 31.8716 41.4395 29.5329 40.8039L28.6901 43.3706L23.4934 41.9029L24.9808 35.3672L27.0595 35.9543C28.8379 36.4565 30.2456 36.6173 31.2826 36.4365C32.3426 36.2621 33.0215 35.5937 33.3191 34.4312C33.5274 33.6175 33.4717 32.9161 33.1519 32.3272C32.8321 31.7382 32.2796 31.3329 31.4943 31.1111C30.6628 30.8762 29.9536 30.9377 29.3667 31.2955C28.7857 31.6301 28.3911 32.2042 28.1827 33.018L22.6049 31.4426C22.9218 30.0113 23.5379 28.8141 24.4532 27.8509C25.3915 26.8943 26.5677 26.2667 27.9815 25.9679C29.4245 25.6524 31.0351 25.7458 32.8136 26.2481ZM23.8396 51.7239C22.8003 51.4303 22.0231 50.8867 21.5081 50.093C21.0221 49.2826 20.8951 48.4241 21.1273 47.5173C21.3654 46.5873 21.8881 45.8997 22.6955 45.4546C23.526 45.0161 24.461 44.9435 25.5003 45.2371C26.5166 45.5241 27.2677 46.0728 27.7537 46.8832C28.2628 47.7002 28.3982 48.5736 28.1602 49.5036C27.928 50.4104 27.3967 51.0831 26.5662 51.5216C25.7647 51.9435 24.8559 52.0109 23.8396 51.7239Z" fill="#C40C0C"/>
</svg>
