<svg width="76" height="74" viewBox="0 0 76 74" fill="none" xmlns="http://www.w3.org/2000/svg">
<path d="M41.6735 3.42545L41.6746 3.4276L50.8802 22.2369L51.0424 22.5683L51.4074 22.6218L71.9788 25.6356C71.9789 25.6356 71.9789 25.6356 71.979 25.6356C73.4363 25.8528 74.6365 26.865 75.0971 28.2493C75.5558 29.628 75.1824 31.1546 74.14 32.1778L74.1397 32.178L59.2217 46.8359L58.9608 47.0924L59.0223 47.453L62.5582 68.1655C62.5583 68.1658 62.5583 68.1661 62.5584 68.1664C62.7995 69.6051 62.1968 71.0619 60.9919 71.9321C59.7955 72.7962 58.2063 72.8966 56.8899 72.2078C56.8891 72.2074 56.8884 72.207 56.8876 72.2066L38.5223 62.4694L38.1944 62.2956L37.8665 62.4694L19.5012 72.2066C19.5005 72.207 19.4997 72.2074 19.4989 72.2078C18.1864 72.8946 16.5947 72.7851 15.3932 71.9294C14.1944 71.0756 13.5889 69.608 13.8305 68.1665C13.8305 68.1662 13.8306 68.1658 13.8306 68.1655L17.3523 47.4526L17.4136 47.0922L17.1528 46.8359L2.23483 32.178L2.23456 32.1778C1.19544 31.1579 0.830024 29.6303 1.27913 28.2441C1.725 26.8679 2.93424 25.8534 4.39532 25.6356C4.39545 25.6356 4.39559 25.6356 4.39572 25.6356L24.9528 22.6218L25.3179 22.5683L25.48 22.2369L34.6844 3.43009C34.6846 3.42975 34.6847 3.42941 34.6849 3.42908C35.3406 2.10374 36.6866 1.26079 38.1801 1.26079C39.6774 1.26079 41.0337 2.10682 41.6735 3.42545Z" fill="#C40C0C" stroke="#265073" stroke-width="1.4"/>
</svg>
