<svg width="77" height="78" viewBox="0 0 77 78" fill="none" xmlns="http://www.w3.org/2000/svg">
<path d="M60.0059 57.9898C56.6822 52.2148 50.441 48.3347 43.3125 48.3347H33.6875C26.559 48.3347 20.3178 52.2148 16.9941 57.9898C22.2879 63.8851 29.9578 67.5847 38.5 67.5847C47.0422 67.5847 54.7121 63.8701 60.0059 57.9898ZM0 38.7097C0 28.4989 4.05624 18.7063 11.2764 11.4861C18.4965 4.26596 28.2892 0.209717 38.5 0.209717C48.7108 0.209717 58.5035 4.26596 65.7236 11.4861C72.9438 18.7063 77 28.4989 77 38.7097C77 48.9206 72.9438 58.7132 65.7236 65.9333C58.5035 73.1535 48.7108 77.2097 38.5 77.2097C28.2892 77.2097 18.4965 73.1535 11.2764 65.9333C4.05624 58.7132 0 48.9206 0 38.7097ZM38.5 41.116C41.3718 41.116 44.126 39.9751 46.1566 37.9445C48.1873 35.9138 49.3281 33.1596 49.3281 30.2878C49.3281 27.416 48.1873 24.6619 46.1566 22.6312C44.126 20.6005 41.3718 19.4597 38.5 19.4597C35.6282 19.4597 32.874 20.6005 30.8434 22.6312C28.8127 24.6619 27.6719 27.416 27.6719 30.2878C27.6719 33.1596 28.8127 35.9138 30.8434 37.9445C32.874 39.9751 35.6282 41.116 38.5 41.116Z" fill="#265073"/>
</svg>
